PathFileType	4	(X/Y/Z)	E:\Qualisys_Data\Carbon_Farble_Plate\Data\Amateur_Runner\S2\T3\S2T3V21_c3d.trc
DataRate	CameraRate	NumFrames	NumMarkers	Units	OrigDataRate	OrigDataStartFrame	OrigNumFrames
200.000000	200.000000	4	39	mm	200.000000	225	301
Frame#	Time	LSHO			RSHO			LICST			RICST			LASIS			LHEEL			RASIS			LTROC			RTROC			SACR			LTH1			LSK4			LTH2			LTH3			RHM5			LSK2			LTH4			RTH1			LTOE			RTH2			RTH3			RTH4			LLEP			RLEP			LSK1			LSK3			RSK1			LHM5			RSK2			LFT1			RSK3			RSK4			LLME			RLME			RTOE			RHEEL			RFT1			RFT2			LFT2			
		X1	Y1	Z1	X2	Y2	Z2	X3	Y3	Z3	X4	Y4	Z4	X5	Y5	Z5	X6	Y6	Z6	X7	Y7	Z7	X8	Y8	Z8	X9	Y9	Z9	X10	Y10	Z10	X11	Y11	Z11	X12	Y12	Z12	X13	Y13	Z13	X14	Y14	Z14	X15	Y15	Z15	X16	Y16	Z16	X17	Y17	Z17	X18	Y18	Z18	X19	Y19	Z19	X20	Y20	Z20	X21	Y21	Z21	X22	Y22	Z22	X23	Y23	Z23	X24	Y24	Z24	X25	Y25	Z25	X26	Y26	Z26	X27	Y27	Z27	X28	Y28	Z28	X29	Y29	Z29	X30	Y30	Z30	X31	Y31	Z31	X32	Y32	Z32	X33	Y33	Z33	X34	Y34	Z34	X35	Y35	Z35	X36	Y36	Z36	X37	Y37	Z37	X38	Y38	Z38	X39	Y39	Z39	

226	1.125	1596.43896484375	1463.161987304688	-453.1312561035156	1673.371215820312	1450.168334960938	-160.718017578125	1595.490844726562	998.9749145507812	-429.3379821777344	1627.087524414062	992.9188842773438	-131.9904327392578	1655.826538085938	952.5580444335938	-411.2781982421875	1730.9375	74.503662109375	-282.9467468261719	1681.02734375	942.1024169921876	-155.0582885742188	1537.44482421875	869.472412109375	-430.4359436035156	1523.877807617188	906.9850463867188	-117.8716506958008	1516.851196289062	1038.081176757812	-270.6008911132812	1728.202026367188	652.1869506835938	-436.3387451171875	1718.865356445312	272.2306823730469	-382.9466552734375	1649.935913085938	623.8931884765625	-427.5375671386719	1764.71142578125	563.0607299804688	-397.6647338867188	994.5020141601562	411.8406066894531	-171.8843994140625	1711.021850585938	368.8011169433594	-401.4786071777344	1684.00634765625	535.5467529296875	-392.41162109375	1576.576904296875	621.0879516601562	-109.1584854125977	1965.369384765625	152.1468048095703	-322.6130065917969	1503.311157226562	646.6210327148438	-112.3569259643555	1544.566162109375	525.3423461914062	-116.3138656616211	1469.904296875	554.2154541015625	-127.8526916503906	1739.853637695312	509.326416015625	-392.3406066894531	1479.622314453125	518.0693969726562	-118.4079132080078	1788.376708984375	377.3659057617188	-390.0247497558594	1797.420776367188	279.4642028808594	-374.5176696777344	1373.2978515625	469.5374145507812	-124.1635513305664	1914.479614257812	98.39044189453124	-372.8081359863281	1372.33447265625	549.5420532226562	-126.6997375488281	1752.108276367188	56.83992767333984	-253.0525512695312	1272.645629882812	467.5789184570312	-143.9332427978516	1274.986206054688	546.274169921875	-149.5455932617188	1784.816650390625	99.02822113037108	-342.2240905761719	1094.321044921875	504.8960571289062	-198.2283325195312	997.4027709960938	331.438232421875	-208.5006408691406	1116.513793945312	546.6390380859375	-267.5299682617188	1096.095458984375	534.7808227539062	-301.4361267089844	1089.768188476562	562.964599609375	-257.5089721679688	1746.19873046875	42.97760009765625	-303.9263916015625
227	1.13	1616.579956054688	1457.408203125	-453.7918090820312	1693.0849609375	1445.259887695312	-160.8159790039062	1614.299438476562	994.301025390625	-428.8337097167969	1646.66162109375	987.910888671875	-131.2039184570312	1674.763671875	948.0249633789062	-411.237548828125	1742.779907226562	76.24637603759766	-282.0744323730469	1701.057495117188	937.8102416992188	-154.8134613037109	1556.4677734375	864.6517944335938	-429.5115051269531	1544.365112304688	900.857177734375	-116.7316513061523	1536.212158203125	1032.660034179688	-269.8629760742188	1748.28369140625	649.9198608398438	-433.4839782714844	1734.335327148438	267.8897399902344	-380.0448608398438	1670.437744140625	621.7169189453125	-424.9304809570312	1784.574584960938	559.9287109375	-394.9749145507812	1020.785522460938	419.2564697265625	-171.3271789550781	1728.040405273438	364.6310729980469	-399.5595092773438	1703.647583007812	532.6783447265625	-391.1803588867188	1601.006103515625	615.55615234375	-108.216423034668	1979.5	142.5292510986328	-317.5419311523438	1527.510009765625	639.9917602539062	-111.5488662719727	1570.82275390625	518.8914794921875	-114.9280014038086	1495.8046875	547.1016235351562	-126.2650833129883	1759.404663085938	505.3453979492188	-390.7340393066406	1506.599853515625	511.8755493164062	-115.4924774169922	1805.436401367188	371.99560546875	-387.8781127929688	1813.215698242188	274.0841369628906	-372.2383117675781	1399.921875	465.4563293457031	-122.9233245849609	1926.948608398438	90.71346282958984	-368.8362731933594	1401.320678710938	545.6653442382812	-124.9923400878906	1761.356689453125	54.94655990600586	-251.1249237060547	1299.598510742188	466.13671875	-143.2163848876953	1304.113403320312	545.2640991210938	-148.161376953125	1797.313598632812	94.25226593017578	-339.7980041503906	1122.988647460938	509.9194641113281	-197.9522552490234	1022.220886230469	338.8355712890625	-208.0886535644531	1145.923217773438	550.7313842773438	-266.7973022460938	1125.623291015625	539.52685546875	-301.1762084960938	1119.989501953125	568.1607666015625	-257.12548828125	1755.576293945312	42.97137069702148	-302.2355346679688
228	1.135	1637.134033203125	1451.653076171875	-455.2079467773438	1712.635864257812	1440.27294921875	-161.317626953125	1632.887329101562	989.6648559570312	-428.3092651367188	1666.35498046875	982.9201049804688	-131.0085906982422	1693.866577148438	943.4412841796876	-411.2770385742188	1753.223999023438	73.58521270751953	-278.929443359375	1720.85986328125	933.1138305664062	-154.703125	1575.355224609375	859.6471557617188	-428.4835510253906	1564.973388671875	894.4615478515625	-115.5186920166016	1555.21875	1027.677978515625	-268.8592834472656	1768.689453125	647.5189819335938	-429.7325744628906	1749.234130859375	263.3662719726562	-377.4716186523438	1691.152099609375	619.853515625	-423.037841796875	1804.57763671875	556.9109497070312	-392.2283935546875	1048.695922851562	425.6285400390625	-171.4796600341797	1744.53369140625	360.7193298339844	-397.3170166015625	1723.494506835938	529.67724609375	-390.5683288574219	1626.515625	610.2440185546875	-106.6748504638672	1991.2109375	130.7610931396484	-312.7780151367188	1552.003784179688	633.028564453125	-110.4940719604492	1597.356079101562	512.7362060546875	-113.0995254516602	1521.910278320312	539.7077026367188	-124.8525238037109	1778.798828125	501.5805969238281	-389.1325073242188	1533.636962890625	505.0955505371094	-113.4008636474609	1822.167846679688	366.84765625	-386.1007080078125	1828.2158203125	268.5661926269531	-370.5326843261719	1427.144775390625	461.3271484375	-121.6471481323242	1936.977294921875	81.64434051513672	-364.9122314453125	1430.707763671875	541.6204833984375	-123.3026428222656	1771.164428710938	50.88803863525391	-247.9440002441406	1326.821655273438	464.9448852539062	-142.3574981689453	1333.364868164062	543.6390380859375	-146.4218597412109	1808.772216796875	91.08338928222656	-337.3744812011719	1152.140991210938	514.2394409179688	-198.0918579101562	1047.869018554688	345.3527221679688	-207.8285064697266	1176.208618164062	554.4611206054688	-266.2510375976562	1155.719360351562	544.1465454101562	-300.7066955566406	1150.206176757812	572.7510375976562	-256.5692749023438	1764.554443359375	41.02851104736328	-299.5409240722656
229	1.14	1657.478637695312	1445.858032226562	-456.3607177734375	1732.157470703125	1435.19384765625	-161.2861175537109	1651.421264648438	984.745361328125	-428.3063354492188	1686.069580078125	977.685546875	-130.4728088378906	1712.778198242188	938.68310546875	-411.5341796875	1761.666137695312	75.75565338134766	-277.1452026367188	1740.763305664062	928.0430908203124	-154.8307037353516	1594.035522460938	854.388916015625	-427.2751770019531	1585.806274414062	887.8207397460938	-114.2179260253906	1574.562744140625	1022.080383300781	-267.8997192382812	1789.58056640625	645.034423828125	-426.1499938964844	1763.638793945312	259.4246826171875	-375.6424865722656	1712.6298828125	617.8363037109375	-421.1131896972656	1824.398193359375	553.8175048828125	-390.3087463378906	1076.469360351562	431.1755065917969	-170.7646026611328	1760.56103515625	356.6413879394531	-395.4691467285156	1743.73046875	526.8107299804688	-390.0330505371094	1651.038452148438	604.6077270507812	-105.3746948242188	2002.91943359375	116.6576690673828	-307.1169738769531	1576.204956054688	625.8141479492188	-109.2815017700195	1624.097412109375	507.3156127929688	-111.5656585693359	1547.979858398438	532.7266235351562	-122.3706665039062	1797.956420898438	497.3714294433594	-387.5976257324219	1561.06884765625	499.0024108886719	-110.9208374023438	1838.53076171875	361.190673828125	-384.5756530761719	1842.864013671875	262.5769653320312	-368.283203125	1454.606811523438	456.8675537109375	-120.1195526123047	1945.53466796875	70.69110107421875	-360.0370483398438	1460.038452148438	537.0414428710938	-121.2994537353516	1776.741088867188	50.90195465087891	-246.1669006347656	1354.673828125	463.3466491699219	-141.2995147705078	1363.183471679688	541.88525390625	-145.3321075439453	1817.931030273438	88.44654846191406	-335.4293823242188	1182.097900390625	518.1076049804688	-196.9690246582031	1074.901611328125	351.2000732421875	-207.2126007080078	1206.567504882812	558.1284790039062	-265.5157775878906	1185.986572265625	547.9356689453125	-299.8475646972656	1180.880126953125	576.6847534179688	-255.3432006835938	1770.322875976562	42.89436721801758	-297.9640502929688
